<?xml version="1.0" encoding="utf-8"?>
<!-- Generator: Adobe Illustrator 19.0.0, SVG Export Plug-In . SVG Version: 6.00 Build 0)  -->
<svg version="1.1" id="Capa_1" xmlns="http://www.w3.org/2000/svg" xmlns:xlink="http://www.w3.org/1999/xlink" x="0px" y="0px"
	 viewBox="-258 60 442 442" style="enable-background:new -258 60 442 442;" xml:space="preserve">
<style type="text/css">
	.st0{fill:#FFFFFF;}
</style>
<circle class="st0" cx="-37" cy="281" r="221"/>
<g>
	<path d="M-104.9,281c0,5.5-4.5,10-10,10h-20c-5.5,0-10-4.5-10-10l0,0c0-5.5,4.5-10,10-10h20C-109.3,271-104.9,275.5-104.9,281
		L-104.9,281z M-104.9,217.1c0-5.5-4.5-10-10-10h-20c-5.5,0-10,4.5-10,10l0,0c0,5.5,4.5,10,10,10h20
		C-109.3,227.1-104.9,222.7-104.9,217.1L-104.9,217.1z M-104.9,344.9c0-5.5-4.5-10-10-10h-20c-5.5,0-10,4.5-10,10l0,0
		c0,5.5,4.5,10,10,10h20C-109.3,354.8-104.9,350.4-104.9,344.9L-104.9,344.9z M70.8,183.2v195.6c0,17.6-14.3,31.9-31.9,31.9h-139.7
		c-17.6,0-31.9-14.3-31.9-31.9v-16h18c9.9,0,18-8.1,18-18c0-9.9-8.1-18-18-18h-18V299h18c9.9,0,18-8.1,18-18s-8.1-18-18-18h-18
		v-27.9h18c9.9,0,18-8.1,18-18s-8.1-18-18-18h-18v-16c0-17.6,14.3-31.9,31.9-31.9H38.8C56.5,151.3,70.8,165.6,70.8,183.2z
		 M-55.8,245.9c0,17,13.8,30.8,30.8,30.8c17,0,30.8-13.8,30.8-30.8S-8,215.1-25,215.1C-42,215.1-55.8,228.9-55.8,245.9z M22.9,321.2
		c0-18.9-15.3-34.2-34.2-34.2h-27.4c-18.9,0-34.2,15.3-34.2,34.2v13.7h95.8V321.2z"/>
</g>
</svg>
