<?xml version="1.0" encoding="utf-8"?>
<!-- Generator: Adobe Illustrator 19.0.0, SVG Export Plug-In . SVG Version: 6.00 Build 0)  -->
<svg version="1.1" id="Layer_1" xmlns="http://www.w3.org/2000/svg" xmlns:xlink="http://www.w3.org/1999/xlink" x="0px" y="0px"
	 viewBox="-329 131 300 300" style="enable-background:new -329 131 300 300;" xml:space="preserve">
<style type="text/css">
	.st0{fill:#FFFFFF;}
</style>
<rect x="-272" y="179" width="189" height="203"/>
<g>
	<g>
		<g>
			<path class="st0" d="M-185.5,285c19.1,0,23.7-15.6,23.7-28.7s-10.6-23.7-23.7-23.7s-23.7,10.6-23.7,23.7
				C-209.2,269.4-202.9,285-185.5,285z"/>
			<path class="st0" d="M-182.2,288.3h-3.3h-3.3c-13,0-32.5,11.9-32.5,26.6c0,14.7-4.4,26.6,8.6,26.6h27.2h27.2
				c13,0,8.6-11.9,8.6-26.6S-169.2,288.3-182.2,288.3z"/>
			<path class="st0" d="M-179,131c-82.8,0-150,67.2-150,150s67.2,150,150,150c82.8,0,150-67.2,150-150C-29,198.2-96.2,131-179,131z
				 M-118.1,348.1v10.4c0,5.7-4.6,10.4-10.4,10.4h-10.4h-57.3h-36.1c-11.5,0-20.7-9.3-20.7-20.7V217.6c0-11.5,9.3-20.7,20.7-20.7
				h36.1h57.3h10.4c5.7,0,10.4,4.6,10.4,10.4v10.4h0L-118.1,348.1L-118.1,348.1z M-97.3,217.6v130.5v10.4c0,5.7-4.6,10.4-10.4,10.4
				h-2.8c1.8-3.1,2.8-6.6,2.8-10.4v-10.4V217.6v-10.4c0-3.8-1-7.3-2.8-10.4h2.8c5.7,0,10.4,4.6,10.4,10.4V217.6z"/>
		</g>
	</g>
</g>
</svg>
