<?xml version="1.0" encoding="utf-8"?>
<!-- Generator: Adobe Illustrator 19.0.0, SVG Export Plug-In . SVG Version: 6.00 Build 0)  -->
<svg version="1.1" id="Capa_1" xmlns="http://www.w3.org/2000/svg" xmlns:xlink="http://www.w3.org/1999/xlink" x="0px" y="0px"
	 viewBox="-218 84.8 522.5 392" style="enable-background:new -218 84.8 522.5 392;" xml:space="preserve">
	 
	 <!-- Begin Custom Gradient -->
	 <style type="text/css">
		svg{fill:url(#SVGID);}
	</style>
	<linearGradient id="SVGID" gradientUnits="userSpaceOnUse" x1="0%" y1="0%" x2="100%" y2="100%">
		<stop  offset="0" style="stop-color:#84fab0"/>
		<stop  offset="1" style="stop-color:#8fd3f4"/>
	</linearGradient>
	<!-- End Custom Gradient -->

<g>
	<g>
		
		<path d="M107.8,90l-17.7-4.9c-2.3-0.8-4.5-0.5-6.7,0.7c-2.2,1.2-3.7,3.1-4.4,5.6L-27.6,460.1c-0.8,2.5-0.5,4.8,0.7,7
			c1.2,2.2,3.1,3.7,5.6,4.4l17.7,4.9c2.3,0.8,4.5,0.5,6.7-0.7c2.2-1.2,3.7-3.1,4.4-5.6L114,101.5c0.8-2.5,0.5-4.8-0.7-7
			C112.1,92.3,110.2,90.8,107.8,90z"/>
		<path d="M-51.8,162c0-2.5-1-4.7-2.9-6.6L-69,141.2c-1.9-1.9-4.1-2.9-6.6-2.9s-4.7,1-6.6,2.9l-133,133c-1.9,1.9-2.9,4.1-2.9,6.6
			s1,4.7,2.9,6.6l133,133c1.9,1.9,4.1,2.9,6.6,2.9s4.7-1,6.6-2.9l14.3-14.3c1.9-1.9,2.9-4.1,2.9-6.6c0-2.5-1-4.7-2.9-6.6
			l-112.2-112.2l112.2-112.2C-52.8,166.7-51.8,164.5-51.8,162z"/>
		<path d="M301.6,274.2l-133-133c-1.9-1.9-4.1-2.9-6.6-2.9c-2.5,0-4.7,1-6.6,2.9l-14.3,14.3c-1.9,1.9-2.9,4.1-2.9,6.6
			s0.9,4.7,2.9,6.6l112.2,112.2L141.2,393c-1.9,1.9-2.9,4.1-2.9,6.6c0,2.5,0.9,4.7,2.9,6.6l14.3,14.3c1.9,1.9,4.1,2.9,6.6,2.9
			c2.5,0,4.7-1,6.6-2.9l133-133c1.9-1.9,2.9-4.1,2.9-6.6C304.5,278.3,303.5,276.1,301.6,274.2z"/>
	</g>
</g>
</svg>
