<?xml version="1.0" encoding="utf-8"?>
<!-- Generator: Adobe Illustrator 19.0.0, SVG Export Plug-In . SVG Version: 6.00 Build 0)  -->
<svg version="1.1" id="Capa_1" xmlns="http://www.w3.org/2000/svg" xmlns:xlink="http://www.w3.org/1999/xlink" x="0px" y="0px"
	 viewBox="-243 76 472 410" style="enable-background:new -243 76 472 410;" xml:space="preserve">
<style type="text/css">
	.st0{fill:#010002;}
</style>
<g>
	<g>
		<path class="st0" d="M-147.5,289c-26.3,0-48.8,9.7-67.5,29s-28,42.5-28,69.5s9.3,50,28,69s41.2,28.5,67.5,28.5s48.8-9.5,67.5-28.5
			s28-42,28-69s-9.3-50.2-28-69.5S-121.2,289-147.5,289z M-92.5,443.5c-15,15.7-33.2,23.5-54.5,23.5s-39.7-7.8-55-23.5
			s-23-34.5-23-56.5s7.7-40.8,23-56.5s33.7-23.5,55-23.5s39.5,7.8,54.5,23.5S-70,365-70,387S-77.5,427.8-92.5,443.5z"/>
		<path class="st0" d="M201,319c-18.7-19.3-41.2-29-67.5-29s-48.8,9.7-67.5,29s-28,42.5-28,69.5s9.3,50,28,69s41.2,28.5,67.5,28.5
			s48.8-9.5,67.5-28.5s28-42,28-69S219.7,338.3,201,319z M188,444.5c-15.3,15.7-33.7,23.5-55,23.5c-21.3,0-39.5-7.8-54.5-23.5
			S56,410,56,388s7.5-40.8,22.5-56.5S111.7,308,133,308s39.7,7.8,55,23.5s23,34.5,23,56.5S203.3,428.8,188,444.5z"/>
		<path class="st0" d="M38,150c10,0,18.5-3.7,25.5-11S74,123,74,113s-3.5-18.7-10.5-26S48,76,38,76s-18.5,3.7-25.5,11S2,103,2,113
			s3.5,18.7,10.5,26S28,150,38,150z"/>
		<path class="st0" d="M106,240c6,0,10.3-2.5,13-7.5s2.7-10,0-15s-7-7.5-13-7.5H48l-38-63l-3-4c-1.3-2-4-4.2-8-6.5s-8.3-3.5-13-3.5
			h-4c-2-0.7-5-0.2-9,1.5s-7.3,4.2-10,7.5l-76,78c-4.7,5.3-7,12-7,20c0,12,5,21,15,27l78,44v83c0,6,1.8,11,5.5,15s8.5,6,14.5,6
			s10.8-2,14.5-6s5.5-9,5.5-15V291l1-5c0-2.7-1.3-6.2-4-10.5S3.3,267.7-2,265l-45-24l49-48l23,37c4,6.7,9,10,15,10H106z"/>
	</g>
</g>
</svg>
