<?xml version="1.0" encoding="utf-8"?>
<!-- Generator: Adobe Illustrator 19.0.0, SVG Export Plug-In . SVG Version: 6.00 Build 0)  -->
<svg version="1.1" id="Capa_1" xmlns="http://www.w3.org/2000/svg" xmlns:xlink="http://www.w3.org/1999/xlink" x="0px" y="0px"
	 viewBox="-307.5 125.4 280.6 311.6" style="enable-background:new -307.5 125.4 280.6 311.6;" xml:space="preserve">
<g>
	<g>
		<path d="M-141.3,125.4c15.2,0,27.5,12.3,27.5,27.5c0,15.2-12.3,27.5-27.5,27.5c-15.2,0-27.5-12.3-27.5-27.5
			C-168.8,137.7-156.5,125.4-141.3,125.4z"/>
		<path d="M-47.5,279.3c1.6,0.6,3.2,0.9,4.8,0.9c5.6,0,10.9-3.5,13-9c8.8-23.8-5.3-58.4-6.9-62.2l-1.9-4.6L-87.4,179
			c-2.9-1.5-6.1-1.8-9-1.2c-22.1-1.9-51.2,14.4-58.8,18.9c-1.2,0.7-1.9,1.1-1.9,1.1v0c-1.3,0.9-2.5,1.9-3.4,3.2l-26.5,37l-35.3,17.4
			c-6.8,3.4-9.7,11.6-6.3,18.5c2.4,4.9,7.3,7.7,12.4,7.7c2,0,4.1-0.5,6.1-1.4l41.5-20.4l13.7-19.2l2.3,44.1c0,0,0.1,0.1,0.4,0.2
			c0.1,0.8,0.2,1.6,0.4,2.3l4.4,17.1l-26.5,30.1l-66.2,80c-4.9,5.9-4,14.6,1.8,19.4c2.6,2.1,5.7,3.2,8.8,3.2c4,0,7.9-1.7,10.6-5
			l65.8-79.5l14.1-15.9l1.4,5.4l7.7,2.1c21.4,5.9,47.1,14.3,54.3,18.4c2.5,3.6,6.7,5.8,11.3,5.8c0.3,0,0.6,0,1,0
			c7.6-0.5,13.3-7.1,12.8-14.7c-0.8-11.5-11.3-17-40.6-26.6c-8.9-2.9-17.7-5.6-23.7-7.3l-2.1-8l9.2-10.4c8.9-5.6,25-53,28-87.1
			l19.4,10c3.7,10.5,8.1,28.3,4.7,37.5C-58.3,268.8-54.6,276.7-47.5,279.3z"/>
		<path d="M-278.5,371.4c16,0,29,13,29,29c0,16-13,29-29,29c-16,0-29-13-29-29C-307.5,384.4-294.5,371.4-278.5,371.4z"/>
	</g>
</g>
</svg>
