<?xml version="1.0" encoding="utf-8"?>
<!-- Generator: Adobe Illustrator 19.0.0, SVG Export Plug-In . SVG Version: 6.00 Build 0)  -->
<svg version="1.1" id="Capa_1" xmlns="http://www.w3.org/2000/svg" xmlns:xlink="http://www.w3.org/1999/xlink" x="0px" y="0px"
	 viewBox="-247 59 465 442.9" style="enable-background:new -247 59 465 442.9;" xml:space="preserve">

	 <!-- Begin Custom Gradient -->
	 <style type="text/css">
		svg{fill:url(#SVGID);}
	</style>
	<linearGradient id="SVGID" gradientUnits="userSpaceOnUse" x1="0%" y1="0%" x2="100%" y2="100%">
		<stop  offset="0" style="stop-color:#84fab0"/>
		<stop  offset="1" style="stop-color:#8fd3f4"/>
	</linearGradient>
	<!-- End Custom Gradient -->
	
<g>
	<path d="M139,323.3c-3.3-22.7-22.9-40.2-46.5-40.2c-25.9,0-47,21.1-47,47V455c0,25.9,21.1,47,47,47c23.6,0,43.2-17.5,46.5-40.2
		c15.1-3.2,26.5-16.7,26.5-32.7v-72.9C165.4,340,154.1,326.6,139,323.3z M150.4,429c0,7.5-4.5,14-11,16.9v-65.8
		c0-4.1-3.4-7.5-7.5-7.5s-7.5,3.4-7.5,7.5V455c0,17.6-14.4,32-32,32s-32-14.4-32-32V330.1c0-17.6,14.4-32,32-32s32,14.4,32,32v20
		c0,4.1,3.4,7.5,7.5,7.5s7.5-3.4,7.5-7.5v-10.9c6.5,2.9,11,9.4,11,16.9V429z"/>
	<path d="M-121.5,283.1c-23.6,0-43.2,17.5-46.5,40.2c-15.1,3.2-26.5,16.7-26.5,32.7V429c0,16.1,11.4,29.5,26.5,32.7
		c3.3,22.7,22.9,40.2,46.5,40.2c25.9,0,47-21.1,47-47V330.1C-74.5,304.2-95.6,283.1-121.5,283.1z M-89.5,455c0,17.6-14.4,32-32,32
		s-32-14.4-32-32v-74.9c0-4.1-3.4-7.5-7.5-7.5s-7.5,3.4-7.5,7.5v65.8c-6.5-2.9-11-9.4-11-16.9v-72.9c0-7.5,4.5-14,11-16.9v10.9
		c0,4.1,3.4,7.5,7.5,7.5s7.5-3.4,7.5-7.5v-20c0-17.6,14.4-32,32-32s32,14.4,32,32V455z"/>
	<path d="M149.9,127.1C106,83.2,47.6,59-14.5,59S-135,83.2-178.9,127.1C-222.8,171-247,229.4-247,291.5c0,4.1,3.4,7.5,7.5,7.5h5.2
		c4.1,0,7.5-3.4,7.5-7.5c0-3.3-2.1-6.1-5.1-7.1c1.8-55.4,24.2-107.3,63.6-146.7C-127.2,96.7-72.6,74-14.5,74s112.7,22.6,153.8,63.7
		c39.4,39.4,61.8,91.3,63.6,146.7c-2.9,1-5.1,3.8-5.1,7.1c0,4.1,3.4,7.5,7.5,7.5h5.2c4.1,0,7.5-3.4,7.5-7.5
		C218,229.4,193.8,171,149.9,127.1z"/>
	<path d="M-14.5,84.2c-114.3,0-207.3,93-207.3,207.3c0,16,1.8,32,5.5,47.5v53.5c0,4.1,3.4,7.5,7.5,7.5c4.1,0,7.5-3.4,7.5-7.5v-54.4
		c0-0.6-0.1-1.2-0.2-1.7c-3.5-14.6-5.3-29.7-5.3-44.8c0-106.1,86.3-192.3,192.3-192.3s192.3,86.3,192.3,192.3
		c0,15.2-1.8,30.2-5.3,44.8c-0.1,0.6-0.2,1.2-0.2,1.7v54.4c0,4.1,3.4,7.5,7.5,7.5s7.5-3.4,7.5-7.5V339c3.6-15.5,5.5-31.4,5.5-47.5
		C192.8,177.2,99.8,84.2-14.5,84.2z"/>
</g>
</svg>
