<?xml version="1.0" encoding="utf-8"?>
<!-- Generator: Adobe Illustrator 19.0.0, SVG Export Plug-In . SVG Version: 6.00 Build 0)  -->
<svg version="1.1" id="Capa_1" xmlns="http://www.w3.org/2000/svg" xmlns:xlink="http://www.w3.org/1999/xlink" x="0px" y="0px"
	 viewBox="-223 25 512 512" style="enable-background:new -223 25 512 512;" xml:space="preserve">

	 <!-- Begin Custom Gradient -->
	 <style type="text/css">
		svg{fill:url(#SVGID);}
	</style>
	<linearGradient id="SVGID" gradientUnits="userSpaceOnUse" x1="0%" y1="0%" x2="100%" y2="100%">
		<stop  offset="0" style="stop-color:#84fab0"/>
		<stop  offset="1" style="stop-color:#8fd3f4"/>
	</linearGradient>
	<!-- End Custom Gradient -->
	
<g>
	<g>
		<path d="M217.6,235.2c-3.4-4.4-6.9-8.5-10.5-12.3c-21.2-22.2-47.3-36.6-75.4-41.5c-5.4-1-10.6,2.7-11.6,8.1
			c-1,5.4,2.7,10.6,8.1,11.6c23.9,4.2,46.2,16.5,64.4,35.6c3.1,3.3,6.2,6.9,9.2,10.7c2,2.6,4.9,3.9,7.9,3.9c2.1,0,4.3-0.7,6.1-2.1
			C220.2,245.9,221,239.6,217.6,235.2z"/>
	</g>
</g>
<g>
	<g>
		<path d="M233.9,261.2c-0.1-0.2-0.2-0.4-0.3-0.6c-2.5-4.9-8.5-6.9-13.4-4.5c-4.9,2.5-6.9,8.5-4.5,13.4c1.7,3.6,5.3,5.8,9.1,5.8
			c1.4,0,2.8-0.3,4.2-0.9C234,272.2,236.2,266.2,233.9,261.2z"/>
	</g>
</g>
<g>
	<g>
		<path d="M277.8,333.5c-4.1-8.6-10.9-22.8-11-27.6c11.7-28.8,7.4-60.7-12-89.9c-30-44.9-91.3-77.4-146-77.4
			c-18.2,0-36.1,2.7-53.4,8.1h-4.9c-1.3-3.5-2.7-7-4.3-10.3l28.5-28.5c1.9-1.9,2.9-4.4,2.9-7.1s-1.1-5.2-2.9-7.1L32,51.1
			c-3.9-3.9-10.2-3.9-14.1,0l-28.5,28.5c-3.4-1.6-6.8-3-10.3-4.3V35c0-5.5-4.5-10-10-10h-60.3c-5.5,0-10,4.5-10,10v40.3
			c-3.5,1.3-7,2.7-10.3,4.3l-28.5-28.5c-1.9-1.9-4.4-2.9-7.1-2.9s-5.2,1.1-7.1,2.9l-42.6,42.6c-3.9,3.9-3.9,10.2,0,14.1l28.5,28.5
			c-1.6,3.4-3,6.8-4.3,10.3H-213c-5.5,0-10,4.5-10,10V217c0,5.5,4.5,10,10,10h40.3c1.3,3.5,2.7,7,4.3,10.3l-28.5,28.5
			c-3.9,3.9-3.9,10.2,0,14.1l42.6,42.6c3.9,3.9,10.2,3.9,14.1,0l28.5-28.5c3.4,1.6,6.8,3,10.3,4.3v40.3c0,5.5,4.5,10,10,10h23.2
			c7,40.6,27.8,77.5,59.1,104.8c0.3,1,1.2,5.6-2.7,19.4c-3.1,10.8-7.8,22.7-12,33.3c-2.8,7.1-5.2,13.2-6.7,17.8
			c-1,3-0.4,6.4,1.5,8.9c1.9,2.6,4.9,4.1,8.1,4.1h142.7c4.7,0,11.1-2.1,15.2-12.1c1.8-4.4,2.9-9.6,4.1-15.1c1.2-5.4,4-18.1,6.7-19.6
			c0,0,0.2,0,0.6,0c0.5,0.1,1,0.1,1.6,0.1c14.9,0,27.2,0.7,37.9,1.3c31.6,1.8,50.7,2.8,67.4-21.3c8.5-12.3,7.5-30.1,6.5-49.1
			c-0.5-9.8-1.1-19.8-0.1-28.2c1.7-1.7,6.1-4.7,8.9-6.6c9.4-6.5,18.3-12.6,18.3-21.9C289,357.5,284.7,348.1,277.8,333.5z
			 M-81.3,328.7v-37.6c0-4.5-2.9-8.4-7.2-9.6c-7-2-13.8-4.8-20.2-8.4c-3.9-2.2-8.8-1.5-11.9,1.7l-26.6,26.6l-28.5-28.5l26.6-26.6
			c3.1-3.2,3.8-8,1.7-11.9c-3.5-6.4-6.4-13.2-8.4-20.2c-1.2-4.3-5.2-7.2-9.6-7.2H-203v-40.3h37.6c4.5,0,8.4-2.9,9.6-7.2
			c2-7,4.8-13.8,8.4-20.2c2.2-3.9,1.5-8.8-1.7-11.9l-26.6-26.6l28.5-28.5l26.6,26.6c3.2,3.2,8,3.8,11.9,1.7
			c6.4-3.5,13.2-6.4,20.2-8.4c4.3-1.2,7.2-5.2,7.2-9.6V45H-41v37.6c0,4.5,2.9,8.4,7.2,9.6c7,2,13.8,4.8,20.2,8.4
			c3.9,2.2,8.8,1.5,11.9-1.7l26.6-26.6l28.5,28.5l-26.6,26.6c-3.1,3.2-3.8,8-1.7,11.9c3.5,6.4,6.4,13.2,8.4,20.2
			c1.2,4.3,5.2,7.2,9.6,7.2h13.8c0,0,0,0,0.1,0h23.8V207H43.2c-4.5,0-8.4,2.9-9.6,7.2c-2,7-4.8,13.8-8.4,20.2
			c-2.2,3.9-1.5,8.8,1.7,11.9l26.6,26.6l-28.5,28.5l-26.6-26.6c-3.2-3.2-8-3.8-11.9-1.7c-6.4,3.5-13.2,6.4-20.2,8.4
			c-4.3,1.2-7.2,5.2-7.2,9.6v37.6L-81.3,328.7L-81.3,328.7z M259.4,369.9c-8.6,5.9-16,11-17.1,18.7c-1.5,10.6-0.9,22.3-0.3,33.6
			c0.8,14,1.6,30-3,36.6c-10,14.3-18.6,14.5-49.9,12.7c-10.3-0.6-23.2-1.3-38.4-1.3c-5.8-0.7-15.7,0.4-22.3,13.2
			c-3.4,6.5-5.1,14.7-6.7,21.9c-0.8,3.6-1.9,8.7-3,11.5H-6.5c0.4-1.1,0.9-2.2,1.4-3.4c14.4-36.3,23.5-62.9,9.6-74.9
			c-27.2-23.5-45.5-55.1-52.2-90H-31c5.5,0,10-4.5,10-10v-40.3c3.5-1.3,7-2.7,10.3-4.3l28.5,28.5c3.9,3.9,10.2,3.9,14.1,0L74.7,280
			c1.9-1.9,2.9-4.4,2.9-7.1c0-2.7-1.1-5.2-2.9-7.1l-28.5-28.5c1.6-3.4,3-6.8,4.3-10.3h40.3c5.5,0,10-4.5,10-10v-58.2
			c2.7-0.1,5.3-0.2,8-0.2c47.6,0,103.3,29.5,129.3,68.5c11.2,16.7,22,42.8,9.9,71.8c-3.9,9.4,1.9,22.5,11.7,43.1
			c3.2,6.7,7.8,16.3,9,20.8C266.6,364.9,262.2,368,259.4,369.9z"/>
	</g>
</g>
<g>
	<g>
		<path d="M-61.1,118.3l-0.3,0c-5.5,0-10,4.5-10,10c0,5.5,4.5,10,10,10l0.3,0c5.5,0,10-4.5,10-10C-51.1,122.7-55.6,118.3-61.1,118.3
			z"/>
	</g>
</g>
<g>
	<g>
		<path d="M-78.4,129.9c-2.5-4.9-8.5-6.9-13.4-4.5c-23.4,11.7-37.9,35.2-37.9,61.4c0,20.3,8.9,39.4,24.4,52.5
			c1.9,1.6,4.2,2.4,6.4,2.4c2.8,0,5.7-1.2,7.6-3.6c3.6-4.2,3-10.5-1.2-14.1c-11-9.3-17.3-22.8-17.3-37.2c0-18.5,10.3-35.2,26.9-43.5
			C-77.9,140.9-75.9,134.9-78.4,129.9z"/>
	</g>
</g>
<g>
	<g>
		<path d="M-61.1,148.3c-21.3,0-38.6,17.3-38.6,38.6s17.3,38.6,38.6,38.6c21.3,0,38.6-17.3,38.6-38.6S-39.8,148.3-61.1,148.3z
			 M-61.1,205.5c-10.3,0-18.6-8.3-18.6-18.6c0-10.3,8.3-18.6,18.6-18.6c10.3,0,18.6,8.3,18.6,18.6
			C-42.5,197.1-50.9,205.5-61.1,205.5z"/>
	</g>
</g>
</svg>
