<?xml version="1.0" encoding="utf-8"?>
<!-- Generator: Adobe Illustrator 19.0.0, SVG Export Plug-In . SVG Version: 6.00 Build 0)  -->
<svg version="1.1" id="Capa_1" xmlns="http://www.w3.org/2000/svg" xmlns:xlink="http://www.w3.org/1999/xlink" x="0px" y="0px"
	 viewBox="-223 137.2 512 287.6" style="enable-background:new -223 137.2 512 287.6;" xml:space="preserve">

	 <!-- Begin Custom Gradient -->
	 <style type="text/css">
		svg{fill:url(#SVGID);}
	</style>
	<linearGradient id="SVGID" gradientUnits="userSpaceOnUse" x1="0%" y1="0%" x2="100%" y2="100%">
		<stop  offset="0" style="stop-color:#84fab0"/>
		<stop  offset="1" style="stop-color:#8fd3f4"/>
	</linearGradient>
	<!-- End Custom Gradient -->
	
<g>
	<g>
		<path d="M249.4,137.2h-80.2c-4.2,0-7.5,3.4-7.5,7.5s3.4,7.5,7.5,7.5h40.6v257.5h-353.7V152.2h278c4.2,0,7.5-3.4,7.5-7.5
			s-3.4-7.5-7.5-7.5h-317.6c-21.8,0-39.6,17.8-39.6,39.6v208.4c0,21.8,17.8,39.6,39.6,39.6h432.8c21.8,0,39.6-17.8,39.6-39.6V176.8
			C289,155,271.2,137.2,249.4,137.2z M-158.9,409.8h-24.5c-13.5,0-24.5-11-24.5-24.5V176.8c0-13.5,11-24.5,24.5-24.5h24.5V409.8z
			 M274,385.2c0,13.5-11,24.5-24.5,24.5h-24.5V152.2h24.5c13.5,0,24.5,11,24.5,24.5V385.2z"/>
	</g>
</g>
<g>
	<g>
		<path d="M241.4,265.5c-4.2,0-7.5,3.4-7.5,7.5V305c0,4.1,3.4,7.5,7.5,7.5s7.5-3.4,7.5-7.5V273C248.9,268.8,245.6,265.5,241.4,265.5
			z"/>
	</g>
</g>
<g>
	<g>
		<path d="M-183.4,281.5h-1c-4.2,0-7.5,3.4-7.5,7.5c0,4.1,3.4,7.5,7.5,7.5h1c4.2,0,7.5-3.4,7.5-7.5S-179.3,281.5-183.4,281.5z"/>
	</g>
</g>
<g>
	<g>
		<path d="M-183.4,241.4h-1c-4.2,0-7.5,3.4-7.5,7.5s3.4,7.5,7.5,7.5h1c4.2,0,7.5-3.4,7.5-7.5S-179.3,241.4-183.4,241.4z"/>
	</g>
</g>
<g>
	<g>
		<path d="M-183.4,321.6h-1c-4.2,0-7.5,3.4-7.5,7.5s3.4,7.5,7.5,7.5h1c4.2,0,7.5-3.4,7.5-7.5S-179.3,321.6-183.4,321.6z"/>
	</g>
</g>
<g>
	<g>
		<path d="M105.1,185.3H-39.1c-52.8,0-95.7,42.9-95.7,95.7s42.9,95.7,95.7,95.7c27.8,0,54.1-12.1,72.1-32.8
			c18.1,20.7,44.4,32.8,72.1,32.8c52.8,0,95.7-42.9,95.7-95.7S157.9,185.3,105.1,185.3z M105.1,361.7c-26.2,0-50.9-12.8-66-34.3
			c-1.4-2-3.7-3.2-6.1-3.2s-4.7,1.2-6.1,3.2c-15.1,21.5-39.8,34.3-66,34.3c-44.5,0-80.7-36.2-80.7-80.7s36.2-80.7,80.7-80.7h144.3
			c44.5,0,80.7,36.2,80.7,80.7S149.6,361.7,105.1,361.7z"/>
	</g>
</g>
<g>
	<g>
		<path d="M105.1,217.4c-13,0-23.5,10.6-23.5,23.5s10.6,23.5,23.5,23.5s23.5-10.6,23.5-23.5C128.7,227.9,118.1,217.4,105.1,217.4z
			 M105.1,249.4c-4.7,0-8.5-3.8-8.5-8.5s3.8-8.5,8.5-8.5c4.7,0,8.5,3.8,8.5,8.5S109.8,249.4,105.1,249.4z"/>
	</g>
</g>
<g>
	<g>
		<path d="M105.1,297.5c-13,0-23.5,10.6-23.5,23.5s10.6,23.5,23.5,23.5s23.5-10.6,23.5-23.5C128.7,308.1,118.1,297.5,105.1,297.5z
			 M105.1,329.6c-4.7,0-8.5-3.8-8.5-8.5c0-4.7,3.8-8.5,8.5-8.5c4.7,0,8.5,3.8,8.5,8.5C113.7,325.8,109.8,329.6,105.1,329.6z"/>
	</g>
</g>
<g>
	<g>
		<path d="M145.2,257.5c-13,0-23.5,10.6-23.5,23.5s10.6,23.5,23.5,23.5s23.5-10.6,23.5-23.5C168.8,268,158.2,257.5,145.2,257.5z
			 M145.2,289.5c-4.7,0-8.5-3.8-8.5-8.5s3.8-8.5,8.5-8.5s8.5,3.8,8.5,8.5S149.9,289.5,145.2,289.5z"/>
	</g>
</g>
<g>
	<g>
		<path d="M65.1,257.5c-13,0-23.5,10.6-23.5,23.5s10.6,23.5,23.5,23.5S88.6,294,88.6,281C88.6,268,78,257.5,65.1,257.5z M65.1,289.5
			c-4.7,0-8.5-3.8-8.5-8.5s3.8-8.5,8.5-8.5s8.5,3.8,8.5,8.5S69.8,289.5,65.1,289.5z"/>
	</g>
</g>
<g>
	<g>
		<path d="M-7.1,257.5h-16.5v-16.5c0-4.1-3.4-7.5-7.5-7.5h-32.1c-4.2,0-7.5,3.4-7.5,7.5v16.5h-16.5c-4.2,0-7.5,3.4-7.5,7.5V297
			c0,4.1,3.4,7.5,7.5,7.5h16.5v16.5c0,4.1,3.4,7.5,7.5,7.5h32.1c4.2,0,7.5-3.4,7.5-7.5v-16.5h16.5c4.2,0,7.5-3.4,7.5-7.5V265
			C0.4,260.8-2.9,257.5-7.1,257.5z M-14.6,289.5h-16.5c-4.2,0-7.5,3.4-7.5,7.5v16.5h-17V297c0-4.1-3.4-7.5-7.5-7.5h-16.5v-17h16.5
			c4.2,0,7.5-3.4,7.5-7.5v-16.5h17V265c0,4.1,3.4,7.5,7.5,7.5h16.5V289.5z"/>
	</g>
</g>
</svg>
