<?xml version="1.0" encoding="utf-8"?>
<!-- Generator: Adobe Illustrator 19.0.0, SVG Export Plug-In . SVG Version: 6.00 Build 0)  -->
<svg version="1.1" id="Layer_1" xmlns="http://www.w3.org/2000/svg" xmlns:xlink="http://www.w3.org/1999/xlink" x="0px" y="0px"
	 viewBox="-223 42.1 512 477.9" style="enable-background:new -223 42.1 512 477.9;" xml:space="preserve">

	 <!-- Begin Custom Gradient -->
	 <style type="text/css">
		svg{fill:url(#SVGID);}
	</style>
	<linearGradient id="SVGID" gradientUnits="userSpaceOnUse" x1="0%" y1="0%" x2="100%" y2="100%">
		<stop  offset="0" style="stop-color:#84fab0"/>
		<stop  offset="1" style="stop-color:#8fd3f4"/>
	</linearGradient>
	<!-- End Custom Gradient -->
	
<g>
	<g>
		<g>
			<path d="M137.5,469c-4.6-1.2-9.2,1.6-10.3,6.2l-8.5,34.1c-1.2,4.6,1.6,9.2,6.2,10.4c0.7,0.2,1.4,0.3,2.1,0.3
				c3.8,0,7.3-2.6,8.3-6.5l8.5-34.1C144.8,474.8,142,470.1,137.5,469z"/>
			<path d="M33,298.1c1.1,0,2.2-0.2,3.3-0.6l93.9-38.8c4.4-1.8,6.4-6.8,4.6-11.1c-1.8-4.4-6.8-6.4-11.2-4.6L33,280.3l-238.9-98.9
				v-2.8c0-4.7-3.8-8.5-8.5-8.5c-4.7,0-8.5,3.8-8.5,8.5v8.5c0,3.5,2.1,6.6,5.3,7.9L29.7,297.4C30.8,297.9,31.9,298.1,33,298.1z"/>
			<path d="M134.5,385.5c-2.1-4.2-7.2-6-11.4-3.9c-16.2,8-43.3,17.3-81.6,18.6v-76.6c0-4.7-3.8-8.5-8.5-8.5s-8.5,3.8-8.5,8.5v76.5
				c-106-3.4-140.2-67.6-145.1-78.3v-58c0-4.7-3.8-8.5-8.5-8.5c-4.7,0-8.5,3.8-8.5,8.5v59.7c0,1.1,0.2,2.2,0.6,3.2
				c1.5,3.7,37.8,90.7,170.1,90.7c46.2,0,78.6-11.2,97.6-20.6C134.9,394.8,136.6,389.7,134.5,385.5z"/>
			<path d="M161,477.3c-4.7,0-8.5,3.8-8.5,8.5v25.6c0,4.7,3.8,8.5,8.5,8.5s8.5-3.8,8.5-8.5v-25.6C169.5,481.1,165.7,477.3,161,477.3
				z"/>
			<path d="M280.5,170.1c-4.7,0-8.5,3.8-8.5,8.5v2.8l-102.4,42.1v-15.4l114.2-47.3c3.2-1.3,5.3-4.4,5.3-7.9c0-3.5-2.1-6.6-5.3-7.9
				L36.3,42.7c-2.1-0.9-4.4-0.9-6.5,0l-247.5,102.4c-3.2,1.3-5.3,4.4-5.3,7.9c0,3.5,2.1,6.6,5.3,7.9L29.7,263.3
				c1,0.4,2.1,0.6,3.3,0.6s2.2-0.2,3.3-0.6l89.5-37c4.4-1.8,6.4-6.8,4.6-11.1c-1.8-4.4-6.8-6.4-11.1-4.6L33,246.2L-192.2,153
				L33,59.8L258.2,153l-98,40.5l-93.8-35c0.5-1.8,0.8-3.6,0.8-5.5c0-14.4-15-25.6-34.1-25.6S-1.1,138.6-1.1,153s15,25.6,34.1,25.6
				c8.5,0,16.2-2.3,22.1-6.1l97.4,36.4v27.3v0v182.9c-9.9,3.5-17.1,12.9-17.1,24c0,14.1,11.5,25.6,25.6,25.6s25.6-11.5,25.6-25.6
				c0-11.1-7.2-20.5-17.1-24v-48.4c24.5-18.5,33.3-43.1,33.7-44.2c0.3-0.9,0.5-1.8,0.5-2.8v-59.7c0-4.7-3.8-8.5-8.5-8.5
				s-8.5,3.8-8.5,8.5v58.2c-1.5,3.6-6.6,14.8-17.1,25.8V242l114.2-47c3.2-1.3,5.3-4.4,5.3-7.9v-8.5
				C289,173.9,285.2,170.1,280.5,170.1z M33,161.5c-10.4,0-17.1-5.1-17.1-8.5c0-3.5,6.6-8.5,17.1-8.5c10.4,0,17.1,5.1,17.1,8.5
				C50.1,156.5,43.4,161.5,33,161.5z M161,451.7c-4.7,0-8.5-3.8-8.5-8.5s3.8-8.5,8.5-8.5s8.5,3.8,8.5,8.5
				C169.5,447.8,165.7,451.7,161,451.7z"/>
			<path d="M194.9,475.2c-1.1-4.6-5.8-7.4-10.3-6.2c-4.6,1.1-7.4,5.8-6.2,10.4l8.5,34.1c1,3.9,4.4,6.5,8.3,6.5
				c0.7,0,1.4-0.1,2.1-0.3c4.6-1.1,7.4-5.8,6.2-10.4L194.9,475.2z"/>
		</g>
	</g>
</g>
</svg>
