<?xml version="1.0" encoding="utf-8"?>
<!-- Generator: Adobe Illustrator 19.0.0, SVG Export Plug-In . SVG Version: 6.00 Build 0)  -->
<svg version="1.1" id="Capa_1" xmlns="http://www.w3.org/2000/svg" xmlns:xlink="http://www.w3.org/1999/xlink" x="0px" y="0px"
	 viewBox="-234.6 37.2 486.9 487.8" style="enable-background:new -234.6 37.2 486.9 487.8;" xml:space="preserve">

	 <!-- Begin Custom Gradient -->
	 <style type="text/css">
		svg{fill:url(#SVGID);}
	</style>
	<linearGradient id="SVGID" gradientUnits="userSpaceOnUse" x1="0%" y1="0%" x2="100%" y2="100%">
		<stop  offset="0" style="stop-color:#84fab0"/>
		<stop  offset="1" style="stop-color:#8fd3f4"/>
	</linearGradient>
	<!-- End Custom Gradient -->

<g>
	<path d="M245.9,198l-24.3-24.3c-4.1-4.1-9.6-6.4-15.4-6.4s-11.3,2.3-15.4,6.4l-3.3,3.3c-32.1-21.4-69.4-32.7-108.5-32.8
		c-0.1,0-0.2,0-0.4,0c-24.3,0-47.8,4.3-69.9,12.7l42.6-42.6c5.4,2.6,11.3,3.9,17.4,3.9c10.8,0,21-4.2,28.6-11.9
		c7.6-7.6,11.9-17.8,11.9-28.6s-4.2-21-11.9-28.6S79.5,37.2,68.7,37.2s-21,4.2-28.6,11.9S28.2,66.9,28.2,77.7
		c0,6.1,1.4,12.1,3.9,17.4l-76.7,76.7l-2.6-2.6c-4.1-4.1-9.6-6.4-15.4-6.4s-11.3,2.3-15.4,6.4l-24.6,24.5c-4.1,4.1-6.4,9.6-6.4,15.4
		s2.3,11.3,6.4,15.4l2.6,2.6l-76.7,76.7c-5.4-2.6-11.3-3.9-17.4-3.9c-10.8,0-21,4.2-28.6,11.9c-15.8,15.8-15.8,41.5,0,57.2
		c7.6,7.6,17.8,11.9,28.6,11.9s21-4.2,28.6-11.9c12.4-12.4,15.1-31,7.9-46l42.6-42.6c-8.4,22.2-12.8,45.9-12.7,70.3
		c0.1,39.1,11.4,76.4,32.8,108.5l-4.1,4.1c-8.5,8.5-8.5,22.4,0,30.9l24.4,24.4c4.1,4.1,9.6,6.4,15.4,6.4c5.8,0,11.3-2.3,15.4-6.4
		l24.4-24.4c8.5-8.5,8.5-22.4,0-30.9l-24.4-24.4c-4.1-4.1-9.6-6.4-15.4-6.4c-5.8,0-11.3,2.3-15.4,6.4l-0.7,0.7
		c-35.1-56.9-33.6-130.5,4.7-185.9c2.5,1,5.1,1.5,7.9,1.5c5.8,0,11.3-2.3,15.4-6.4l24.4-24.4c6.3-6.3,7.9-15.5,4.9-23.3
		c55.4-38.3,129-39.9,185.9-4.7l-1.5,1.5c-8.5,8.5-8.5,22.4,0,30.9l24.4,24.4c4.1,4.1,9.6,6.4,15.4,6.4s11.3-2.3,15.4-6.4l24.4-24.4
		C254.5,220.4,254.5,206.6,245.9,198z M-42.2,478.9L-59.3,496l-17.1-17.1l17.1-17.1L-42.2,478.9z M59,68.3c2.5-2.5,5.9-3.9,9.5-3.9
		s7,1.4,9.5,3.9s3.9,5.9,3.9,9.5s-1.4,7-3.9,9.5s-5.9,3.9-9.5,3.9s-7-1.4-9.5-3.9l0,0l0,0c-2.5-2.5-3.9-5.9-3.9-9.5
		S56.5,70.9,59,68.3z M-184.6,350c-2.5,2.5-5.9,3.9-9.5,3.9c-3.6,0-7-1.4-9.5-3.9c-5.3-5.3-5.3-13.8,0-19c2.5-2.5,5.9-3.9,9.5-3.9
		c3.6,0,7,1.4,9.5,3.9C-179.3,336.2-179.3,344.8-184.6,350z M-62.8,226.2l-17.1-17.1l17.1-17.1l8.5,8.5l0,0l0,0l8.5,8.5L-62.8,226.2
		z M206.1,230.5L189,213.4l17.1-17.1l17.1,17.1L206.1,230.5z"/>
</g>
</svg>
